# AST/ASF file generated using VICON BodyLanguage
# -----------------------------------------------
:version 1.10
:name VICON
:units
  mass 1.0
  length 0.45
  angle deg
:documentation
   .ast/.asf automatically generated from VICON data using
   VICON BodyBuilder and BodyLanguage model FoxedUp or BRILLIANT.MOD
:root
   order TX TY TZ RX RY RZ
   axis XYZ
   position 0 0 0  
   orientation 0 0 0 
:bonedata
  begin
     id 1 
     name lhipjoint
     direction 0.643272 -0.706573 0.294883 
     length 2.58915 
     axis 0 0 0  XYZ
  end
  begin
     id 2 
     name lfemur
     direction 0.34202 -0.939693 0  
     length 7.06802  
     axis 0 0 20  XYZ
    dof rx ry rz
    limits (-160.0 20.0)
           (-70.0 70.0)
           (-60.0 70.0)
  end
  begin
     id 3 
     name ltibia
     direction 0.34202 -0.939693 0   
     length 7.94147   
     axis 0 0 20   XYZ
    dof rx
    limits (-10.0 170.0)
  end
  begin
     id 4 
     name lfoot
     direction 0.0435058 -0.119531 0.991877   
     length 1.8399   
     axis -90 7.62852e-016 20   XYZ
    dof rx rz
    limits (-45.0 90.0)
           (-70.0 20.0)
  end
  begin
     id 5 
     name ltoes
     direction 1.53505e-011 -4.22157e-011 1   
     length 0.934412   
     axis -90 7.62852e-016 20   XYZ
    dof rx
    limits (-90.0 20.0)
  end
  begin
     id 6 
     name rhipjoint
     direction -0.636801 -0.711547 0.296959   
     length 2.57105  
     axis 0 0 0  XYZ 
  end
  begin
     id 7 
     name rfemur
     direction -0.34202 -0.939693 0   
     length 7.03285   
     axis 0 0 -20   XYZ
    dof rx ry rz
    limits (-160.0 20.0)
           (-70.0 70.0)
           (-70.0 60.0)
  end
  begin
     id 8 
     name rtibia
     direction -0.34202 -0.939693 0   
     length 7.99111   
     axis 0 0 -20   XYZ
    dof rx
    limits (-10.0 170.0)
 end
 begin
     id 9 
     name rfoot
     direction -0.0783088 -0.215152 0.973436   
     length 1.98785  
     axis -90 -7.62852e-016 -20   XYZ
    dof rx rz
    limits (-45.0 90.0)
           (-20.0 70.0)
  end
  begin
     id 10 
     name rtoes
     direction -1.53606e-011 -4.21943e-011 1   
     length 1.001   
     axis -90 -7.62852e-016 -20   XYZ
    dof rx
    limits (-90.0 20.0)
  end
  begin
     id 11 
     name lowerback
     direction 0.00141527 0.998403 -0.0564763   
     length 2.30486   
     axis 0 0 0   XYZ
    dof rx ry rz
    limits (-20.0 45.0)
           (-30.0 30.0)
           (-30.0 30.0)
  end
  begin
     id 12 
     name upperback
     direction 0.0125137 0.999915 0.00361315   
     length 2.30697   
     axis 0 0 0   XYZ
    dof rx ry rz
    limits (-20.0 45.0)
           (-30.0 30.0)
           (-30.0 30.0)
  end
  begin
     id 13 
     name thorax
     direction 0.0136417 0.999471 0.0295116   
     length 2.31005   
     axis 0 0 0   XYZ
    dof rx ry rz
    limits (-20.0 45.0)
           (-30.0 30.0)
           (-30.0 30.0)
  end
  begin
     id 14 
     name lowerneck
     direction 0.0766806 0.997047 0.00422047   
     length 1.68825   
     axis 0 0 0   XYZ
    dof rx ry rz
    limits (-20.0 45.0)
           (-30.0 30.0)
           (-30.0 30.0)
  end
  begin
     id 15 
     name upperneck
     direction -0.143512 0.985106 -0.0947088   
     length 1.69772   
     axis 0 0 0   XYZ
    dof rx ry rz
    limits (-20.0 45.0)
           (-30.0 30.0)
           (-30.0 30.0)
  end
  begin
     id 16
     name head
     direction -0.0539128 0.997849 -0.0372864  
     length 1.71187  
     axis 0 0 0   XYZ
    dof rx ry rz
    limits (-20.0 45.0)
           (-30.0 30.0)
           (-30.0 30.0)
  end
  begin
     id 17 
     name lclavicle
     direction 0.978251 0.207416 -0.00165765  
     length 3.35399  
     axis 0 0 0   XYZ
    dof ry rz
    limits (-20.0 10.0)
           (0.0 20.0)
  end
  begin
     id 18 
     name lhumerus
     direction 1 -4.48966e-011 -1.32191e-028   
     length 5.70706   
     axis 180 -30 -90   XYZ
    dof rx ry rz
    limits (-60.0 90.0)
           (-90.0 90.0)
           (-90.0 90.0)
  end
  begin
     id 19
     name lradius
     direction 1 -4.48976e-011 9.36106e-027   
     length 3.33243   
     axis 180 -30 -90   XYZ
    dof rx
    limits (-10.0 170.0)
  end
  begin
     id 20
     name lwrist
     direction 1 -4.48976e-011 1.1555e-026   
     length 1.66621   
     axis -5.7412e-015 90 90   XYZ
    dof ry
    limits (-180.0 0.0)
 end
  begin
     id 21 
     name lhand
     direction 1 -4.48939e-011 2.31113e-026   
     length 0.792687   
     axis -1.47463e-014 90 90   XYZ
    dof rx rz
    limits (-90.0 90.0)
           (-45.0 45.0)
  end
  begin
     id 22 
     name lfingers
     direction 1 -4.48866e-011 4.62274e-026   
     length 0.639085   
     axis -2.94925e-014 90 90   XYZ
    dof rx
    limits (0.0 90.0)
  end
  begin
     id 23
     name lthumb
     direction 0.707107 -6.34847e-011 0.707107   
     length 0.917601   
     axis -90 45 -6.68868e-015   XYZ
    dof rx rz
    limits (-45.0 45.0)
           (-45.0 45.0)
  end
  begin
     id 24 
     name rclavicle
     direction -0.981813 0.185514 0.0403428   
     length 3.47271  
     axis 0 0 0   XYZ 
    dof ry rz
    limits (-10.0 20.0)
           (-20.0 0.0)
  end
  begin
     id 25 
     name rhumerus
     direction -1 -4.48972e-011 -6.58544e-029  
     length 5.88176   
     axis 180 30 90   XYZ
    dof rx ry rz
    limits (-90.0 60.0)
           (-90.0 90.0)
           (-90.0 90.0)
  end
  begin
     id 26 
     name rradius
     direction -1 -4.48964e-011 8.36306e-027   
     length 3.28156   
     axis 180 30 90   XYZ
    dof rx
    limits (-10.0 170.0)
  end
  begin
     id 27 
     name rwrist
     direction -1 -4.48903e-011 1.15562e-026   
     length 1.64078   
     axis -5.7412e-015 -90 -90   XYZ
    dof ry
    limits (-180.0 0.0)
  end
  begin
     id 28
     name rhand
     direction -1 -4.49055e-011 2.31074e-026   
     length 0.863125   
     axis -1.47463e-014 -90 -90   XYZ
    dof rx rz
    limits (-90.0 90.0)
           (-45.0 45.0)
  end
  begin
     id 29
     name rfingers
     direction -1 -4.48994e-011 4.62188e-026   
     length 0.695873   
     axis -2.94925e-014 -90 -90   XYZ
    dof rx
    limits (0.0 90.0)
  end
  begin
     id 30
     name rthumb
     direction -0.707107 -6.35058e-011 0.707107   
     length 0.999139   
     axis -90 -45 6.68868e-015   XYZ
    dof rx rz
    limits (-45.0 45.0)
           (-45.0 45.0)
  end
:hierarchy
  begin
    root lhipjoint rhipjoint lowerback
    lhipjoint lfemur
    lfemur ltibia
    ltibia lfoot
    lfoot ltoes
    rhipjoint rfemur
    rfemur rtibia
    rtibia rfoot
    rfoot rtoes
    lowerback upperback
    upperback thorax
    thorax lowerneck lclavicle rclavicle
    lowerneck upperneck
    upperneck head
    lclavicle lhumerus
    lhumerus lradius
    lradius lwrist
    lwrist lhand lthumb
    lhand lfingers
    rclavicle rhumerus
    rhumerus rradius
    rradius rwrist
    rwrist rhand rthumb
    rhand rfingers
  end

#!OML:ASF \\Waltz\H\Terrain\Patient Classification 1\Animal2\Wednesday\Animal2.ASF
:FULLY-SPECIFIED
:DEGREES
546
root 1.76147 17.7405 -16.3673 3.1507 2.62026 -1.3137
lowerback 5.46265 -3.76386 5.74968
upperback -2.84058 -4.48788 1.41627
thorax -6.37188 -2.41569 -1.22838
lowerneck 10.3389 6.91343 14.1089
upperneck -13.6741 9.14199 -18.9185
head -4.09479 5.15789 -8.87075
rclavicle 7.10655e-015 0
rhumerus 18.126 39.6382 -62.1182
rradius 94.2633
rwrist -14.1162
rhand -14.681 17.7901
rfingers 7.12502
rthumb 11.4724 -11.876
lclavicle 7.10655e-015 0
lhumerus 27.0502 18.9382 24.0164
lradius 80.7555
lwrist -2.84114
lhand -52.237 18.2397
lfingers 7.12502
lthumb -24.7347 46.6606
rfemur -27.2232 -1.85539 21.7472
rtibia 56.1487
rfoot -18.7239 -2.52763
rtoes 17.747
lfemur -10.6199 1.04001 -20.928
ltibia 26.9372
lfoot -19.578 4.19473
ltoes -26.0608
547
root 1.77678 17.7638 -16.319 3.15543 2.23646 -0.974068
lowerback 5.43212 -3.83588 5.63908
upperback -2.94862 -4.60433 1.20191
thorax -6.48602 -2.47766 -1.37299
lowerneck 10.3038 7.07641 14.2394
upperneck -13.4694 9.40366 -18.9211
head -3.97526 5.27886 -8.87857
rclavicle 2.22841e-014 -9.14409e-015
rhumerus 17.9003 39.8804 -62.6763
rradius 93.9903
rwrist -14.3491
rhand -15.6635 18.209
rfingers 7.12502
rthumb 10.5247 -11.5075
lclavicle 2.22841e-014 -9.14409e-015
lhumerus 26.7207 18.7838 23.5482
lradius 80.5162
lwrist -3.05779
lhand -52.0548 18.2542
lfingers 7.12502
lthumb -24.56 46.699
rfemur -27.4271 -1.1079 21.2014
rtibia 55.9547
rfoot -18.9897 -3.29614
rtoes 19.7075
lfemur -9.92244 1.22265 -21.3646
ltibia 26.0857
lfoot -19.1861 4.37963
ltoes -26.0681
548
root 1.78469 17.7738 -16.2702 3.06992 1.66217 -0.707988
lowerback 5.45226 -3.83257 5.51093
upperback -2.95818 -4.61831 1.04223
thorax -6.51105 -2.48379 -1.46512
lowerneck 10.259 7.28068 14.1447
upperneck -13.4469 9.67445 -18.85
head -3.92275 5.41006 -8.83339
rclavicle 2.08068e-014 1.98785e-015
rhumerus 17.7474 40.0445 -63.013
rradius 93.9107
rwrist -14.3485
rhand -16.5816 18.0163
rfingers 7.12502
rthumb 9.63902 -11.7431
lclavicle 2.08068e-014 1.98785e-015
lhumerus 26.438 18.7158 23.1393
lradius 80.128
lwrist -3.56305
lhand -51.8754 18.3396
lfingers 7.12502
lthumb -24.388 46.8076
rfemur -27.5421 -0.122773 20.7858
rtibia 55.6632
rfoot -19.4262 -4.21094
rtoes 20.7389
lfemur -9.20539 1.49997 -21.6863
ltibia 25.339
lfoot -18.7253 4.69834
ltoes -26.9003
549
root 1.79076 17.7827 -16.2272 3.19149 1.00273 -0.654673
lowerback 5.30844 -3.81183 5.56446
upperback -3.02404 -4.59647 1.00638
thorax -6.50471 -2.47777 -1.54146
lowerneck 10.3162 7.48808 13.8997
upperneck -13.5557 9.91789 -18.8283
head -3.93695 5.54248 -8.79365
rclavicle 2.9813e-014 -9.93923e-015
rhumerus 17.8626 40.3674 -63.0468
rradius 93.803
rwrist -14.3948
rhand -17.66 17.8272
rfingers 7.12502
rthumb 8.59848 -11.9777
lclavicle 2.9813e-014 -9.93923e-015
lhumerus 25.9396 18.7089 22.7249
lradius 79.7812
lwrist -3.83121
lhand -51.8903 18.2715
lfingers 7.12502
lthumb -24.4023 46.7376
rfemur -27.9552 0.778049 20.6373
rtibia 55.3055
rfoot -19.673 -5.08708
rtoes 20.0933
lfemur -8.7547 1.80739 -21.7715
ltibia 24.6705
lfoot -18.4295 5.002
ltoes -27.4853
550
root 1.79861 17.7937 -16.1849 3.44235 0.380209 -0.573678
lowerback 4.79013 -3.91017 5.63612
upperback -3.04568 -4.75962 0.983748
thorax -6.25104 -2.55923 -1.62045
lowerneck 10.9199 7.66776 13.4268
upperneck -14.2566 10.0826 -18.8202
head -4.24717 5.67008 -8.79192
rclavicle -2.20325e-014 7.95139e-015
rhumerus 18.4509 40.9753 -62.9319
rradius 93.5368
rwrist -14.6867
rhand -18.7793 18.4118
rfingers 7.12502
rthumb 7.51819 -11.4346
lclavicle -2.20325e-014 7.95139e-015
lhumerus 25.1263 18.9456 22.1731
lradius 79.5393
lwrist -4.03082
lhand -51.9864 18.7311
lfingers 7.12502
lthumb -24.4945 47.1847
rfemur -28.4968 1.52603 20.459
rtibia 54.8726
rfoot -19.7876 -5.67034
rtoes 19.1485
lfemur -8.44613 1.99413 -21.8904
ltibia 24.0507
lfoot -18.2091 5.29535
ltoes -28.0349
551
root 1.80729 17.8018 -16.1361 3.51038 -0.162889 -0.144625
lowerback 4.49799 -4.1151 5.31866
upperback -3.18061 -5.07671 0.91877
thorax -6.22669 -2.707 -1.49197
lowerneck 12.0018 7.85954 12.8406
upperneck -15.2076 10.2577 -18.8222
head -4.72273 5.82783 -8.82778
rclavicle 6.01199e-014 -1.39149e-014
rhumerus 18.6911 41.7891 -63.1007
rradius 93.1422
rwrist -14.6589
rhand -19.5288 19.5785
rfingers 7.12502
rthumb 6.7947 -10.2925
lclavicle 6.01199e-014 -1.39149e-014
lhumerus 23.8806 19.0332 21.3857
lradius 79.3694
lwrist -4.41867
lhand -52.1432 19.318
lfingers 7.12502
lthumb -24.6447 47.7512
rfemur -28.7045 2.23574 19.8582
rtibia 54.3269
rfoot -20.1504 -5.80462
rtoes 20.2438
lfemur -7.98566 2.12005 -22.3642
ltibia 23.538
lfoot -17.9782 5.28083
ltoes -28.6867
552
root 1.81557 17.8047 -16.082 3.38091 -0.785665 0.455887
lowerback 4.73323 -4.18512 4.89209
upperback -3.46044 -5.19308 0.697061
thorax -6.64721 -2.76203 -1.4419
lowerneck 12.4252 8.08089 12.9092
upperneck -15.0626 10.6132 -18.9667
head -4.67884 6.02516 -8.90762
rclavicle 1.7785e-014 -7.95139e-015
rhumerus 18.2638 42.2497 -63.7392
rradius 92.6368
rwrist -14.0347
rhand -19.8518 20.1144
rfingers 7.12502
rthumb 6.48284 -9.76634
lclavicle 1.7785e-014 -7.95139e-015
lhumerus 22.8746 18.6453 20.6996
lradius 79.3307
lwrist -4.74561
lhand -52.3939 19.1359
lfingers 7.12502
lthumb -24.8851 47.5361
rfemur -28.6032 2.98831 19.0501
rtibia 53.6766
rfoot -20.432 -5.57712
rtoes 21.5829
lfemur -7.35112 2.37182 -23.0234
ltibia 23.0941
lfoot -17.6484 5.19009
ltoes -29.2466
553
root 1.81808 17.8008 -16.0321 3.29808 -1.46285 0.673097
lowerback 4.91892 -4.1118 4.81331
upperback -3.61774 -5.09726 0.52763
thorax -6.92385 -2.72181 -1.56405
lowerneck 12.2403 8.2626 13.4115
upperneck -14.3783 10.973 -19.2553
head -4.32958 6.19111 -9.02682
rclavicle -4.99571e-014 7.55382e-015
rhumerus 18.0356 42.7198 -64.1105
rradius 92.3312
rwrist -14.8992
rhand -21.0211 20.2162
rfingers 7.12502
rthumb 5.35395 -9.69619
lclavicle -4.99571e-014 7.55382e-015
lhumerus 22.3877 18.2727 20.4025
lradius 79.3247
lwrist -4.87199
lhand -52.5343 19.1597
lfingers 7.12502
lthumb -25.0196 47.5413
rfemur -28.5136 3.77671 18.7081
rtibia 52.8976
rfoot -20.5213 -5.19192
rtoes 21.1203
lfemur -6.83316 2.77739 -23.2403
ltibia 22.6597
lfoot -17.0936 5.40934
ltoes -30.4275
554
root 1.8133 17.8001 -15.9878 3.36545 -2.09987 0.913297
lowerback 4.87883 -4.02572 4.56593
upperback -3.74118 -5.00792 0.427963
thorax -7.01175 -2.67256 -1.53981
lowerneck 12.4989 8.3691 13.6305
upperneck -14.4043 11.1613 -19.4668
head -4.31991 6.29905 -9.15087
rclavicle -6.02566e-014 0
rhumerus 17.9141 42.8306 -64.4919
rradius 91.9774
rwrist -14.715
rhand -21.3866 20.9033
rfingers 7.12502
rthumb 5.00103 -9.01765
lclavicle -6.02566e-014 0
lhumerus 21.9552 17.9708 20.157
lradius 79.1721
lwrist -4.86914
lhand -52.79 19.6367
lfingers 7.12502
lthumb -25.2646 47.9839
rfemur -28.6265 4.50174 18.361
rtibia 52.0072
rfoot -20.5514 -4.72132
rtoes 20.3904
lfemur -6.60648 3.20809 -23.4439
ltibia 22.3666
lfoot -16.6943 5.52903
ltoes -32.2803
